<?xml version="1.0" encoding="UTF-8"?>
<svg id="Layer_1" data-name="Layer 1" xmlns="http://www.w3.org/2000/svg" viewBox="0 0 163.75 209.75">
  <defs>
    <style>
      .cls-1 {
        fill: none;
        stroke: #000;
        stroke-width: 4px;
      }
    </style>
  </defs>
  <path class="cls-1" d="m7.99,7.99h75.04c17.82,0,31.35,4.29,40.6,12.85,9.25,8.57,13.88,20.9,13.88,37,0,9.77-1.76,17.86-5.27,24.28-3.51,6.42-8.87,11.86-16.06,16.32,7.2,1.38,13.32,3.47,18.38,6.3,5.05,2.83,9.16,6.3,12.33,10.41,3.17,4.11,5.44,8.74,6.81,13.88,1.37,5.14,2.05,10.63,2.05,16.45,0,9.08-1.58,17.13-4.75,24.15-3.17,7.03-7.63,12.94-13.36,17.73-5.74,4.8-12.72,8.39-20.94,10.79-8.23,2.4-17.48,3.6-27.75,3.6H7.99V7.99Z"/>
  <path d="m96.98,146.6c0,10.63-3.12,19.4-9.32,26.33-6.18,6.88-14.01,10.34-23.43,10.34-7.97,0-15.1-3.07-21.38-9.2v7.22h-15.92V61.77h15.92v58.57c6.38-6.59,13.6-9.9,21.67-9.9,9.27,0,17.03,3.48,23.19,10.41,6.18,6.88,9.27,15.46,9.27,25.75"/>
</svg>